<?xml version="1.0"?>
<svg width="512" height="512" xmlns="http://www.w3.org/2000/svg" xmlns:svg="http://www.w3.org/2000/svg" version="1.1" xml:space="preserve">
 <style type="text/css">.st0{fill:#000000;}</style>
 <g class="layer">
  <title>Layer 1</title>
  <g id="svg_1">
   <path class="st0" d="m326.75,128.86c-4.91,-9.39 -10.56,-17.85 -16.12,-23.85c6.89,-10.37 10.93,-22.8 10.93,-36.21c-0.01,-36.21 -29.36,-65.55 -65.56,-65.56c-36.2,0.01 -65.55,29.35 -65.55,65.56c0,13.39 4.04,25.83 10.93,36.21c-5.57,6 -11.21,14.46 -16.12,23.85c-4.94,9.51 -9.03,19.7 -10.57,29.29c-0.51,3.19 -0.75,6.3 -0.75,9.31c-0.04,10.03 2.86,19.08 7.92,26.38c7.6,11.02 19.34,17.97 32.3,22.31c13.01,4.33 27.53,6.13 41.84,6.14c19.08,-0.05 38.53,-3.14 54.28,-11.4c7.86,-4.15 14.82,-9.71 19.87,-17.05c5.05,-7.3 7.94,-16.35 7.91,-26.38c0,-3.02 -0.24,-6.12 -0.75,-9.31c-1.54,-9.59 -5.63,-19.78 -10.56,-29.29zm-104.36,-93.67c8.63,-8.63 20.46,-13.93 33.61,-13.93c13.15,0 24.99,5.3 33.62,13.93c8.61,8.63 13.93,20.46 13.93,33.61c-0.01,13.15 -5.32,24.97 -13.93,33.6c-8.63,8.61 -20.47,13.92 -33.62,13.92c-13.15,-0.01 -24.98,-5.31 -33.61,-13.92c-8.62,-8.63 -13.93,-20.45 -13.93,-33.6c0,-13.15 5.32,-24.98 13.93,-33.61zm92.91,148.47c-4.49,6.56 -12.55,11.88 -23.16,15.4c-10.56,3.53 -23.35,5.21 -36.14,5.19c-17.03,0.05 -34.1,-3.03 -45.86,-9.31c-5.9,-3.1 -10.42,-6.91 -13.43,-11.3c-3,-4.42 -4.73,-9.46 -4.75,-16.18c0,-2 0.16,-4.18 0.52,-6.51c0.99,-6.44 4.42,-15.5 8.75,-23.76c3.87,-7.46 8.5,-14.32 12.22,-18.6c11.46,9.81 26.3,15.75 42.55,15.75c16.26,0 31.1,-5.94 42.56,-15.74c3.71,4.27 8.35,11.13 12.22,18.59c4.33,8.26 7.76,17.32 8.74,23.76c0.37,2.33 0.53,4.49 0.53,6.51c-0.02,6.72 -1.75,11.76 -4.75,16.2z" id="svg_2"/>
   <path class="st0" d="m152.82,400.06c-4.93,-9.39 -10.56,-17.85 -16.14,-23.86c6.91,-10.36 10.95,-22.81 10.95,-36.22c-0.01,-36.21 -29.36,-65.55 -65.56,-65.56c-36.2,0.01 -65.54,29.35 -65.55,65.56c0,13.4 4.03,25.84 10.94,36.22c-5.57,5.99 -11.23,14.45 -16.14,23.86c-4.94,9.51 -9.02,19.69 -10.57,29.28c-0.5,3.19 -0.75,6.3 -0.75,9.31c-0.03,10.01 2.85,19.08 7.92,26.38c7.6,11.01 19.35,17.98 32.3,22.32c13.02,4.33 27.53,6.11 41.85,6.13c19.08,-0.03 38.54,-3.13 54.29,-11.4c7.84,-4.15 14.82,-9.71 19.85,-17.04c5.05,-7.31 7.95,-16.36 7.92,-26.37c0,-3.03 -0.25,-6.14 -0.76,-9.33c-1.54,-9.59 -5.63,-19.77 -10.55,-29.28zm-104.36,-93.69c8.64,-8.61 20.46,-13.91 33.61,-13.93c13.15,0.02 24.98,5.32 33.6,13.93c8.63,8.63 13.92,20.45 13.93,33.61c-0.01,13.15 -5.3,24.97 -13.93,33.62c-8.62,8.61 -20.45,13.91 -33.6,13.91c-13.15,0 -24.98,-5.3 -33.62,-13.91c-8.61,-8.65 -13.91,-20.47 -13.91,-33.62c0,-13.16 5.3,-24.98 13.92,-33.61zm92.9,148.47c-4.48,6.59 -12.55,11.89 -23.16,15.42c-10.54,3.53 -23.36,5.21 -36.13,5.21c-17.04,0.04 -34.12,-3.05 -45.87,-9.32c-5.9,-3.12 -10.41,-6.92 -13.43,-11.33c-3,-4.41 -4.73,-9.47 -4.75,-16.17c0,-2.02 0.17,-4.19 0.54,-6.5c0.98,-6.45 4.4,-15.5 8.74,-23.76c3.87,-7.48 8.51,-14.32 12.23,-18.61c11.45,9.81 26.29,15.76 42.54,15.76c16.25,0 31.08,-5.95 42.54,-15.74c3.72,4.26 8.36,11.11 12.23,18.59c4.34,8.26 7.76,17.31 8.74,23.76c0.37,2.31 0.53,4.49 0.53,6.52c-0.03,6.7 -1.75,11.76 -4.75,16.17z" id="svg_3"/>
   <path class="st0" d="m511.25,429.34c-1.55,-9.59 -5.63,-19.77 -10.57,-29.28c-4.91,-9.41 -10.57,-17.87 -16.13,-23.86c6.9,-10.38 10.93,-22.82 10.93,-36.22c-0.01,-36.21 -29.34,-65.55 -65.55,-65.56c-36.2,0.01 -65.55,29.35 -65.55,65.56c0,13.4 4.03,25.84 10.93,36.22c-5.56,5.99 -11.21,14.47 -16.13,23.86c-4.92,9.51 -9.01,19.69 -10.56,29.28c-0.5,3.19 -0.75,6.3 -0.75,9.33c-0.03,10.01 2.86,19.06 7.92,26.37c7.61,11 19.34,17.98 32.3,22.31c13.01,4.33 27.54,6.11 41.85,6.13c19.08,-0.03 38.53,-3.13 54.28,-11.4c7.86,-4.15 14.83,-9.71 19.86,-17.05c5.05,-7.3 7.95,-16.35 7.92,-26.38c0,-3.01 -0.26,-6.12 -0.75,-9.31zm-114.92,-122.97c8.63,-8.61 20.45,-13.91 33.6,-13.92c13.15,0.01 24.97,5.31 33.61,13.92c8.62,8.63 13.92,20.45 13.92,33.61c0,13.15 -5.3,24.97 -13.92,33.62c-8.63,8.61 -20.46,13.91 -33.61,13.91c-13.15,0 -24.97,-5.3 -33.6,-13.91c-8.63,-8.65 -13.93,-20.47 -13.93,-33.62c0,-13.16 5.3,-24.98 13.93,-33.61zm92.9,148.47c-4.48,6.59 -12.54,11.89 -23.16,15.42c-10.55,3.53 -23.36,5.21 -36.14,5.21c-17.04,0.04 -34.12,-3.05 -45.86,-9.31c-5.89,-3.12 -10.42,-6.93 -13.43,-11.32c-2.99,-4.42 -4.72,-9.47 -4.75,-16.17c0,-2.03 0.17,-4.2 0.53,-6.52c0.99,-6.45 4.4,-15.5 8.75,-23.76c3.86,-7.48 8.49,-14.32 12.22,-18.61c11.45,9.81 26.3,15.76 42.55,15.76c16.24,0 31.08,-5.95 42.53,-15.74c3.73,4.26 8.36,11.12 12.23,18.59c4.35,8.26 7.76,17.31 8.74,23.76c0.37,2.32 0.54,4.49 0.54,6.5c-0.03,6.72 -1.75,11.77 -4.75,16.19z" id="svg_4"/>
   <path class="st0" d="m102.63,211.01l-19.5,-4.39c4.18,-13.56 11.02,-26.27 20.2,-37.32c4.77,-5.74 10.18,-11.05 16.2,-15.78c5.87,-4.61 12.24,-8.69 19.17,-12.08l-7.95,-16.17c-8.1,3.98 -15.56,8.74 -22.35,14.08c-7.03,5.54 -13.35,11.73 -18.93,18.43c-11.03,13.28 -19.09,28.58 -23.93,44.88l-22.32,-5.02l22.28,49.02l37.13,-35.65z" id="svg_5"/>
   <path class="st0" d="m281.95,470.8c-7.99,1.83 -16.2,2.78 -24.44,2.78c-6.1,0 -12.22,-0.51 -18.29,-1.55c-7.36,-1.26 -14.65,-3.3 -21.76,-6.15c-6.92,-2.75 -13.64,-6.25 -20.06,-10.55l-10.02,15c7.5,5.01 15.35,9.07 23.38,12.28c8.3,3.33 16.83,5.71 25.42,7.18c7.08,1.22 14.22,1.81 21.33,1.81c10.06,0 20.06,-1.26 29.8,-3.61l6.47,20.77l31.31,-43.79l-49.42,-14.33l6.28,20.16z" id="svg_6"/>
   <path class="st0" d="m406.32,166.53c10.11,10.62 18.1,23.24 23.24,37.18c2.6,6.99 4.48,14.35 5.56,21.92c0.74,5.11 1.12,10.3 1.12,15.58c0,2.33 -0.07,4.69 -0.23,7.07l17.99,1.16c0.17,-2.76 0.26,-5.5 0.26,-8.24c0,-6.15 -0.45,-12.21 -1.29,-18.14c-1.27,-8.85 -3.47,-17.43 -6.5,-25.6c-6.14,-16.64 -15.76,-31.62 -27.93,-44.18l15.33,-16.62l-53.58,-5.2l12.3,49.96l13.73,-14.89z" id="svg_7"/>
  </g>
  <ellipse cx="256" cy="67" fill="#000000" id="svg_8" rx="61" ry="50" stroke="#000000" stroke-width="5"/>
  <polyline fill="none" id="svg_10" opacity="0.5" points="194,146 " stroke="#000000" stroke-linecap="round" stroke-width="5"/>
  <ellipse cx="256.5" cy="159.5" fill="#000000" id="svg_12" rx="68.5" ry="50" stroke="#000000" stroke-width="5"/>
  <ellipse cx="429" cy="336.5" fill="#000000" id="svg_13" rx="61" ry="50" stroke="#000000" stroke-width="5"/>
  <ellipse cx="430" cy="430.5" fill="#000000" id="svg_14" rx="68.5" ry="50" stroke="#000000" stroke-width="5"/>
  <ellipse cx="83" cy="428.5" fill="#000000" id="svg_15" rx="68.5" ry="50" stroke="#000000" stroke-width="5" transform="matrix(1 0 0 1 0 0)"/>
  <ellipse cx="83" cy="333.5" fill="#000000" id="svg_16" rx="61" ry="50" stroke="#000000" stroke-width="5"/>
 </g>
</svg>